<?xml version="1.0" encoding="utf-8"?>
<!-- Generator: Adobe Illustrator 25.2.3, SVG Export Plug-In . SVG Version: 6.00 Build 0)  -->
<svg version="1.1" id="Layer_1" xmlns="http://www.w3.org/2000/svg" xmlns:xlink="http://www.w3.org/1999/xlink" x="0px" y="0px"
	 viewBox="0 0 680.9 616.6" style="enable-background:new 0 0 680.9 616.6;" xml:space="preserve">
<style type="text/css">
	.st0{fill:#79B609;}
	.st1{fill:#0C6919;}
	.st2{fill:#259A81;}
	.st3{fill:#3376A8;}
	.st4{fill:#3B31BA;}
	.st5{fill:#7509C0;}
	.st6{fill:#BA07A2;}
	.st7{fill:#2d2d2d;}
</style>
<g>
	<path class="st0" d="M666.8,74.5H14.1C6.3,74.5,0,68.1,0,60.3V14.1C0,6.3,6.3,0,14.1,0h652.6c7.8,0,14.1,6.3,14.1,14.1v46.2
		C680.9,68.1,674.6,74.5,666.8,74.5z M14.1,3C8,3,3,8,3,14.1v46.2c0,6.1,5,11.1,11.1,11.1h652.6c6.1,0,11.1-5,11.1-11.1V14.1
		c0-6.1-5-11.1-11.1-11.1H14.1z"/>
</g>
<g>
	<path class="st1" d="M666.8,164.8H14.1c-7.8,0-14.1-6.3-14.1-14.1v-46.2c0-7.8,6.3-14.1,14.1-14.1h652.6c7.8,0,14.1,6.3,14.1,14.1
		v46.2C680.9,158.5,674.6,164.8,666.8,164.8z M14.1,93.4C8,93.4,3,98.4,3,104.5v46.2c0,6.1,5,11.1,11.1,11.1h652.6
		c6.1,0,11.1-5,11.1-11.1v-46.2c0-6.1-5-11.1-11.1-11.1H14.1z"/>
</g>
<g>
	<path class="st2" d="M666.8,255.2H14.1c-7.8,0-14.1-6.3-14.1-14.1v-46.2c0-7.8,6.3-14.1,14.1-14.1h652.6c7.8,0,14.1,6.3,14.1,14.1
		v46.2C680.9,248.8,674.6,255.2,666.8,255.2z M14.1,183.7c-6.1,0-11.1,5-11.1,11.1v46.2c0,6.1,5,11.1,11.1,11.1h652.6
		c6.1,0,11.1-5,11.1-11.1v-46.2c0-6.1-5-11.1-11.1-11.1H14.1z"/>
</g>
<g>
	<path class="st3" d="M666.8,345.6H14.1c-7.8,0-14.1-6.3-14.1-14.1v-46.2c0-7.8,6.3-14.1,14.1-14.1h652.6c7.8,0,14.1,6.3,14.1,14.1
		v46.2C680.9,339.2,674.6,345.6,666.8,345.6z M14.1,274.1c-6.1,0-11.1,5-11.1,11.1v46.2c0,6.1,5,11.1,11.1,11.1h652.6
		c6.1,0,11.1-5,11.1-11.1v-46.2c0-6.1-5-11.1-11.1-11.1H14.1z"/>
</g>
<g>
	<path class="st4" d="M666.8,435.9H14.1c-7.8,0-14.1-6.3-14.1-14.1v-46.2c0-7.8,6.3-14.1,14.1-14.1h652.6c7.8,0,14.1,6.3,14.1,14.1
		v46.2C680.9,429.6,674.6,435.9,666.8,435.9z M14.1,364.5c-6.1,0-11.1,5-11.1,11.1v46.2c0,6.1,5,11.1,11.1,11.1h652.6
		c6.1,0,11.1-5,11.1-11.1v-46.2c0-6.1-5-11.1-11.1-11.1H14.1z"/>
</g>
<g>
	<path class="st5" d="M666.8,526.3H14.1c-7.8,0-14.1-6.3-14.1-14.1V466c0-7.8,6.3-14.1,14.1-14.1h652.6c7.8,0,14.1,6.3,14.1,14.1
		v46.2C680.9,519.9,674.6,526.3,666.8,526.3z M14.1,454.8C8,454.8,3,459.8,3,466v46.2c0,6.1,5,11.1,11.1,11.1h652.6
		c6.1,0,11.1-5,11.1-11.1V466c0-6.1-5-11.1-11.1-11.1H14.1z"/>
</g>
<g>
	<path class="st6" d="M666.8,616.6H14.1c-7.8,0-14.1-6.3-14.1-14.1v-46.2c0-7.8,6.3-14.1,14.1-14.1h652.6c7.8,0,14.1,6.3,14.1,14.1
		v46.2C680.9,610.3,674.6,616.6,666.8,616.6z M14.1,545.2c-6.1,0-11.1,5-11.1,11.1v46.2c0,6.1,5,11.1,11.1,11.1h652.6
		c6.1,0,11.1-5,11.1-11.1v-46.2c0-6.1-5-11.1-11.1-11.1H14.1z"/>
</g>
<g>
	<path class="st7" d="M65.9,25.8v4.5l-12.6,26h-7.6l12.6-24.6v-0.1h-14v-5.9H65.9z"/>
	<path class="st7" d="M70.4,52.5c0-2.5,1.7-4.4,4.2-4.4s4.2,1.8,4.2,4.4c0,2.5-1.7,4.3-4.2,4.3C72.2,56.9,70.4,55,70.4,52.5z"/>
	<path class="st7" d="M268.5,48.2l-2.3,8.1h-7.4l9.7-31.7h9.4l9.8,31.7H280l-2.4-8.1H268.5z M276.5,42.9l-2-6.7
		c-0.6-1.9-1.1-4.2-1.6-6.1h-0.1c-0.5,1.9-0.9,4.3-1.5,6.1l-1.9,6.7H276.5z"/>
	<path class="st7" d="M291.4,41.1c0-3-0.1-5.6-0.2-7.7h6.2l0.3,3.2h0.1c1.7-2.4,4.3-3.7,7.7-3.7c5,0,9.5,4.4,9.5,11.7
		c0,8.4-5.3,12.3-10.4,12.3c-2.8,0-4.9-1.1-6-2.6h-0.1v11.4h-7.1V41.1z M298.5,46.5c0,0.6,0,1.1,0.1,1.5c0.5,1.9,2.1,3.4,4.2,3.4
		c3.1,0,4.9-2.6,4.9-6.5c0-3.7-1.6-6.4-4.8-6.4c-2,0-3.8,1.5-4.3,3.6c-0.1,0.4-0.1,0.8-0.1,1.3V46.5z"/>
	<path class="st7" d="M319.5,41.1c0-3-0.1-5.6-0.2-7.7h6.2l0.3,3.2h0.1c1.7-2.4,4.3-3.7,7.7-3.7c5,0,9.5,4.4,9.5,11.7
		c0,8.4-5.3,12.3-10.4,12.3c-2.8,0-4.9-1.1-6-2.6h-0.1v11.4h-7.1V41.1z M326.7,46.5c0,0.6,0,1.1,0.1,1.5c0.5,1.9,2.1,3.4,4.2,3.4
		c3.1,0,4.9-2.6,4.9-6.5c0-3.7-1.6-6.4-4.8-6.4c-2,0-3.8,1.5-4.3,3.6c-0.1,0.4-0.1,0.8-0.1,1.3V46.5z"/>
	<path class="st7" d="M347.6,23h7.1v33.4h-7.1V23z"/>
	<path class="st7" d="M367.9,27c0,2-1.5,3.6-3.9,3.6c-2.3,0-3.8-1.6-3.7-3.6c0-2.1,1.5-3.6,3.8-3.6S367.9,24.9,367.9,27z
		 M360.5,56.4v-23h7.1v23H360.5z"/>
	<path class="st7" d="M390.7,55.8c-1.3,0.6-3.7,1-6.4,1c-7.4,0-12.2-4.5-12.2-11.7c0-6.7,4.6-12.2,13.2-12.2c1.9,0,3.9,0.3,5.5,0.9
		l-1.1,5.3c-0.8-0.4-2.1-0.7-4-0.7c-3.8,0-6.2,2.7-6.2,6.4c0,4.2,2.8,6.4,6.3,6.4c1.7,0,3-0.3,4.1-0.7L390.7,55.8z"/>
	<path class="st7" d="M407.9,56.4l-0.4-2.3h-0.1c-1.5,1.8-3.9,2.8-6.6,2.8c-4.7,0-7.4-3.4-7.4-7c0-6,5.4-8.8,13.5-8.8v-0.3
		c0-1.2-0.7-3-4.2-3c-2.3,0-4.8,0.8-6.3,1.7l-1.3-4.6c1.6-0.9,4.7-2,8.9-2c7.7,0,10.1,4.5,10.1,9.9v8c0,2.2,0.1,4.3,0.3,5.6H407.9z
		 M407,45.5c-3.8,0-6.7,0.8-6.7,3.6c0,1.8,1.2,2.7,2.8,2.7c1.8,0,3.2-1.2,3.7-2.6c0.1-0.4,0.1-0.8,0.1-1.2V45.5z"/>
	<path class="st7" d="M427.2,26.8v6.6h5.1v5.3h-5.1V47c0,2.8,0.7,4,2.8,4c0.9,0,1.6-0.1,2.1-0.2l0,5.4c-0.9,0.4-2.6,0.6-4.7,0.6
		c-2.3,0-4.2-0.8-5.4-2c-1.3-1.4-2-3.6-2-6.8v-9.4h-3.1v-5.3h3.1v-5L427.2,26.8z"/>
	<path class="st7" d="M443.9,27c0,2-1.5,3.6-3.9,3.6c-2.3,0-3.8-1.6-3.7-3.6c0-2.1,1.5-3.6,3.8-3.6S443.8,24.9,443.9,27z
		 M436.5,56.4v-23h7.1v23H436.5z"/>
	<path class="st7" d="M472.1,44.6c0,8.4-6,12.3-12.1,12.3c-6.7,0-11.9-4.4-11.9-11.8c0-7.4,4.9-12.2,12.3-12.2
		C467.4,32.9,472.1,37.7,472.1,44.6z M455.4,44.8c0,3.9,1.6,6.9,4.7,6.9c2.8,0,4.6-2.8,4.6-6.9c0-3.4-1.3-6.9-4.6-6.9
		C456.7,37.9,455.4,41.5,455.4,44.8z"/>
	<path class="st7" d="M476.5,40.7c0-2.9-0.1-5.3-0.2-7.3h6.2l0.3,3.1h0.1c0.9-1.5,3.3-3.7,7.1-3.7c4.7,0,8.2,3.1,8.2,9.9v13.6h-7.1
		V43.6c0-3-1-5-3.6-5c-2,0-3.1,1.4-3.6,2.7c-0.2,0.4-0.3,1.1-0.3,1.8v13.3h-7.1V40.7z"/>
	<path class="st7" d="M63.5,120.9c-0.8,0-1.6,0-2.8,0.1c-6.3,0.5-9.2,3.8-10,7.3h0.1c1.5-1.6,3.6-2.4,6.5-2.4c5.1,0,9.4,3.6,9.4,10
		c0,6.1-4.7,11-11.3,11c-8.1,0-12.1-6.1-12.1-13.3c0-5.7,2.1-10.5,5.4-13.6c3.1-2.8,7-4.3,11.8-4.5c1.3-0.1,2.2-0.1,2.9,0V120.9z
		 M59.6,136.2c0-2.8-1.5-5.3-4.6-5.3c-1.9,0-3.5,1.2-4.2,2.7c-0.2,0.4-0.3,0.9-0.3,1.8c0.1,3.2,1.7,6.2,4.9,6.2
		C58,141.6,59.6,139.3,59.6,136.2z"/>
	<path class="st7" d="M70.4,142.5c0-2.5,1.7-4.4,4.2-4.4s4.2,1.8,4.2,4.4c0,2.5-1.7,4.3-4.2,4.3C72.2,146.9,70.4,145,70.4,142.5z"/>
	<path class="st7" d="M261.1,115.1c2.2-0.4,5.3-0.7,9.7-0.7c4.4,0,7.6,0.8,9.7,2.5c2,1.6,3.4,4.2,3.4,7.3c0,3.1-1,5.7-2.9,7.5
		c-2.4,2.3-6.1,3.3-10.3,3.3c-0.9,0-1.8,0-2.4-0.1v11.3h-7.1V115.1z M268.2,129.5c0.6,0.1,1.4,0.2,2.4,0.2c3.8,0,6.2-1.9,6.2-5.2
		c0-2.9-2-4.7-5.6-4.7c-1.5,0-2.4,0.1-3,0.3V129.5z"/>
	<path class="st7" d="M287.7,130.9c0-3.4-0.1-5.6-0.2-7.6h6.2l0.2,4.2h0.2c1.2-3.3,4-4.7,6.2-4.7c0.7,0,1,0,1.5,0.1v6.7
		c-0.5-0.1-1.1-0.2-1.9-0.2c-2.6,0-4.4,1.4-4.9,3.6c-0.1,0.5-0.1,1-0.1,1.6v11.7h-7.1V130.9z"/>
	<path class="st7" d="M310.7,137.1c0.2,3,3.1,4.4,6.5,4.4c2.4,0,4.4-0.3,6.3-0.9l0.9,4.8c-2.3,0.9-5.2,1.4-8.3,1.4
		c-7.8,0-12.3-4.5-12.3-11.7c0-5.8,3.6-12.3,11.6-12.3c7.4,0,10.2,5.8,10.2,11.5c0,1.2-0.1,2.3-0.2,2.8H310.7z M319.1,132.3
		c0-1.7-0.8-4.7-4-4.7c-3,0-4.2,2.7-4.4,4.7H319.1z"/>
	<path class="st7" d="M330,140.1c1.3,0.8,4,1.7,6.2,1.7c2.2,0,3.1-0.8,3.1-1.9c0-1.2-0.7-1.7-3.4-2.6c-4.7-1.6-6.6-4.2-6.5-6.9
		c0-4.3,3.7-7.5,9.4-7.5c2.7,0,5.1,0.6,6.5,1.3l-1.3,4.9c-1-0.6-3-1.3-5-1.3c-1.7,0-2.7,0.7-2.7,1.9c0,1.1,0.9,1.6,3.7,2.6
		c4.4,1.5,6.2,3.7,6.3,7.1c0,4.3-3.4,7.4-10,7.4c-3,0-5.7-0.7-7.4-1.6L330,140.1z"/>
	<path class="st7" d="M355.9,137.1c0.2,3,3.1,4.4,6.5,4.4c2.4,0,4.4-0.3,6.3-0.9l0.9,4.8c-2.3,0.9-5.2,1.4-8.3,1.4
		c-7.8,0-12.3-4.5-12.3-11.7c0-5.8,3.6-12.3,11.6-12.3c7.4,0,10.2,5.8,10.2,11.5c0,1.2-0.1,2.3-0.2,2.8H355.9z M364.3,132.3
		c0-1.7-0.8-4.7-4-4.7c-3,0-4.2,2.7-4.4,4.7H364.3z"/>
	<path class="st7" d="M375.3,130.7c0-2.9-0.1-5.3-0.2-7.3h6.2l0.3,3.1h0.1c0.9-1.5,3.3-3.7,7.1-3.7c4.7,0,8.2,3.1,8.2,9.9v13.6h-7.1
		v-12.7c0-3-1-5-3.6-5c-2,0-3.1,1.4-3.6,2.7c-0.2,0.4-0.3,1.1-0.3,1.8v13.3h-7.1V130.7z"/>
	<path class="st7" d="M410.5,116.8v6.6h5.1v5.3h-5.1v8.3c0,2.8,0.7,4,2.8,4c0.9,0,1.6-0.1,2.1-0.2l0,5.4c-0.9,0.4-2.6,0.6-4.7,0.6
		c-2.3,0-4.2-0.8-5.4-2c-1.3-1.4-2-3.6-2-6.8v-9.4h-3.1v-5.3h3.1v-5L410.5,116.8z"/>
	<path class="st7" d="M432.8,146.4l-0.4-2.3h-0.1c-1.5,1.8-3.9,2.8-6.6,2.8c-4.7,0-7.4-3.4-7.4-7c0-6,5.4-8.8,13.5-8.8v-0.3
		c0-1.2-0.7-3-4.2-3c-2.3,0-4.8,0.8-6.3,1.7l-1.3-4.6c1.6-0.9,4.7-2,8.9-2c7.7,0,10.1,4.5,10.1,9.9v8c0,2.2,0.1,4.3,0.3,5.6H432.8z
		 M432,135.5c-3.8,0-6.7,0.8-6.7,3.6c0,1.8,1.2,2.7,2.8,2.7c1.8,0,3.2-1.2,3.7-2.6c0.1-0.4,0.1-0.8,0.1-1.2V135.5z"/>
	<path class="st7" d="M452.2,116.8v6.6h5.1v5.3h-5.1v8.3c0,2.8,0.7,4,2.8,4c0.9,0,1.6-0.1,2.1-0.2l0,5.4c-0.9,0.4-2.6,0.6-4.7,0.6
		c-2.3,0-4.2-0.8-5.4-2c-1.3-1.4-2-3.6-2-6.8v-9.4h-3.1v-5.3h3.1v-5L452.2,116.8z"/>
	<path class="st7" d="M468.8,117c0,2-1.5,3.6-3.9,3.6c-2.3,0-3.8-1.6-3.7-3.6c0-2.1,1.5-3.6,3.8-3.6S468.8,114.9,468.8,117z
		 M461.4,146.4v-23h7.1v23H461.4z"/>
	<path class="st7" d="M497,134.6c0,8.4-6,12.3-12.1,12.3c-6.7,0-11.9-4.4-11.9-11.8c0-7.4,4.9-12.2,12.3-12.2
		C492.3,122.9,497,127.7,497,134.6z M480.4,134.8c0,3.9,1.6,6.9,4.7,6.9c2.8,0,4.6-2.8,4.6-6.9c0-3.4-1.3-6.9-4.6-6.9
		C481.7,127.9,480.4,131.5,480.4,134.8z"/>
	<path class="st7" d="M501.4,130.7c0-2.9-0.1-5.3-0.2-7.3h6.2l0.3,3.1h0.1c0.9-1.5,3.3-3.7,7.1-3.7c4.7,0,8.2,3.1,8.2,9.9v13.6h-7.1
		v-12.7c0-3-1-5-3.6-5c-2,0-3.1,1.4-3.6,2.7c-0.2,0.4-0.3,1.1-0.3,1.8v13.3h-7.1V130.7z"/>
	<path class="st7" d="M64.4,211.7H52.5l-0.7,4.7c0.7-0.1,1.2-0.1,2-0.1c2.9,0,5.9,0.7,8,2.2c2.3,1.6,3.7,4.1,3.7,7.7
		c0,5.7-4.9,10.7-13.1,10.7c-3.7,0-6.8-0.8-8.5-1.7l1.3-5.4c1.4,0.7,4.1,1.5,6.9,1.5c3,0,6.1-1.4,6.1-4.7c0-3.1-2.5-5.1-8.6-5.1
		c-1.7,0-2.9,0.1-4.1,0.3l2-16h16.8V211.7z"/>
	<path class="st7" d="M70.4,232.5c0-2.5,1.7-4.4,4.2-4.4s4.2,1.8,4.2,4.4c0,2.5-1.7,4.3-4.2,4.3C72.2,236.9,70.4,235,70.4,232.5z"/>
	<path class="st7" d="M261.3,229c1.9,1,4.9,2,7.9,2c3.3,0,5-1.4,5-3.4c0-2-1.5-3.1-5.3-4.5c-5.3-1.8-8.7-4.7-8.7-9.4
		c0-5.4,4.5-9.5,12-9.5c3.6,0,6.2,0.8,8.1,1.6l-1.6,5.8c-1.3-0.6-3.5-1.5-6.6-1.5c-3.1,0-4.6,1.4-4.6,3.1c0,2,1.8,2.9,5.9,4.5
		c5.6,2.1,8.2,5,8.2,9.4c0,5.3-4.1,9.8-12.8,9.8c-3.6,0-7.2-0.9-9-1.9L261.3,229z"/>
	<path class="st7" d="M292.1,227.1c0.2,3,3.1,4.4,6.5,4.4c2.4,0,4.4-0.3,6.3-0.9l0.9,4.8c-2.3,0.9-5.2,1.4-8.3,1.4
		c-7.8,0-12.3-4.5-12.3-11.7c0-5.8,3.6-12.3,11.6-12.3c7.4,0,10.2,5.8,10.2,11.5c0,1.2-0.1,2.3-0.2,2.8H292.1z M300.5,222.3
		c0-1.7-0.8-4.7-4-4.7c-3,0-4.2,2.7-4.4,4.7H300.5z"/>
	<path class="st7" d="M311.3,230.1c1.3,0.8,4,1.7,6.2,1.7c2.2,0,3.1-0.8,3.1-1.9c0-1.2-0.7-1.7-3.4-2.6c-4.7-1.6-6.6-4.2-6.5-6.9
		c0-4.3,3.7-7.5,9.4-7.5c2.7,0,5.1,0.6,6.5,1.3l-1.3,4.9c-1-0.6-3-1.3-5-1.3c-1.7,0-2.7,0.7-2.7,1.9c0,1.1,0.9,1.6,3.7,2.6
		c4.4,1.5,6.2,3.7,6.2,7.1c0,4.3-3.4,7.4-10,7.4c-3,0-5.7-0.7-7.4-1.6L311.3,230.1z"/>
	<path class="st7" d="M331.7,230.1c1.3,0.8,4,1.7,6.2,1.7c2.2,0,3.1-0.8,3.1-1.9c0-1.2-0.7-1.7-3.4-2.6c-4.7-1.6-6.6-4.2-6.5-6.9
		c0-4.3,3.7-7.5,9.4-7.5c2.7,0,5.1,0.6,6.5,1.3l-1.3,4.9c-1-0.6-3-1.3-5-1.3c-1.7,0-2.7,0.7-2.7,1.9c0,1.1,0.9,1.6,3.7,2.6
		c4.4,1.5,6.2,3.7,6.2,7.1c0,4.3-3.4,7.4-10,7.4c-3,0-5.7-0.7-7.4-1.6L331.7,230.1z"/>
	<path class="st7" d="M359.5,207c0,2-1.5,3.6-3.9,3.6c-2.3,0-3.8-1.6-3.7-3.6c0-2.1,1.5-3.6,3.8-3.6S359.5,204.9,359.5,207z
		 M352.2,236.4v-23h7.1v23H352.2z"/>
	<path class="st7" d="M387.7,224.6c0,8.4-6,12.3-12.1,12.3c-6.7,0-11.9-4.4-11.9-11.8c0-7.4,4.9-12.2,12.3-12.2
		C383,212.9,387.7,217.7,387.7,224.6z M371.1,224.8c0,3.9,1.6,6.9,4.7,6.9c2.8,0,4.6-2.8,4.6-6.9c0-3.4-1.3-6.9-4.6-6.9
		C372.4,217.9,371.1,221.5,371.1,224.8z"/>
	<path class="st7" d="M392.2,220.7c0-2.9-0.1-5.3-0.2-7.3h6.2l0.3,3.1h0.1c0.9-1.5,3.3-3.7,7.1-3.7c4.7,0,8.2,3.1,8.2,9.9v13.6h-7.1
		v-12.7c0-3-1-5-3.6-5c-2,0-3.1,1.4-3.6,2.7c-0.2,0.4-0.3,1.1-0.3,1.8v13.3h-7.1V220.7z"/>
	<path class="st7" d="M56.6,326.4v-7.3H43.1v-4.7l11.6-18.6h8.7v17.9H67v5.4h-3.7v7.3H56.6z M56.6,313.7v-6.8c0-1.8,0.1-3.7,0.2-5.7
		h-0.2c-1,2-1.8,3.8-2.8,5.7l-4.1,6.7v0.1H56.6z"/>
	<path class="st7" d="M70.4,322.5c0-2.5,1.7-4.4,4.2-4.4s4.2,1.8,4.2,4.4c0,2.5-1.7,4.3-4.2,4.3C72.2,326.9,70.4,325,70.4,322.5z"/>
	<path class="st7" d="M274.9,300.7h-8.5v-6h24.3v6H282v25.7h-7.2V300.7z"/>
	<path class="st7" d="M291.7,310.9c0-3.4-0.1-5.6-0.2-7.6h6.2l0.2,4.2h0.2c1.2-3.3,4-4.7,6.2-4.7c0.7,0,1,0,1.5,0.1v6.7
		c-0.5-0.1-1.1-0.2-1.9-0.2c-2.6,0-4.4,1.4-4.9,3.6c-0.1,0.5-0.1,1-0.1,1.6v11.7h-7.1V310.9z"/>
	<path class="st7" d="M322.1,326.4l-0.4-2.3h-0.1c-1.5,1.8-3.9,2.8-6.6,2.8c-4.7,0-7.4-3.4-7.4-7c0-6,5.4-8.8,13.5-8.8v-0.3
		c0-1.2-0.7-3-4.2-3c-2.3,0-4.8,0.8-6.3,1.7l-1.3-4.6c1.6-0.9,4.7-2,8.9-2c7.7,0,10.1,4.5,10.1,9.9v8c0,2.2,0.1,4.3,0.3,5.6H322.1z
		 M321.3,315.5c-3.8,0-6.7,0.8-6.7,3.6c0,1.8,1.2,2.7,2.8,2.7c1.8,0,3.2-1.2,3.7-2.6c0.1-0.4,0.1-0.8,0.1-1.2V315.5z"/>
	<path class="st7" d="M333.9,310.7c0-2.9-0.1-5.3-0.2-7.3h6.2l0.3,3.1h0.1c0.9-1.5,3.3-3.7,7.1-3.7c4.7,0,8.2,3.1,8.2,9.9v13.6h-7.1
		v-12.7c0-3-1-5-3.6-5c-2,0-3.1,1.4-3.6,2.7c-0.2,0.4-0.3,1.1-0.3,1.8v13.3h-7.1V310.7z"/>
	<path class="st7" d="M361.4,320.1c1.3,0.8,4,1.7,6.2,1.7c2.2,0,3.1-0.8,3.1-1.9s-0.7-1.7-3.4-2.6c-4.7-1.6-6.6-4.2-6.5-6.9
		c0-4.3,3.7-7.5,9.4-7.5c2.7,0,5.1,0.6,6.5,1.3l-1.3,4.9c-1-0.6-3-1.3-5-1.3c-1.7,0-2.7,0.7-2.7,1.9c0,1.1,0.9,1.6,3.7,2.6
		c4.4,1.5,6.2,3.7,6.2,7.1c0,4.3-3.4,7.4-10,7.4c-3,0-5.7-0.7-7.4-1.6L361.4,320.1z"/>
	<path class="st7" d="M381.8,311.1c0-3-0.1-5.6-0.2-7.7h6.2l0.3,3.2h0.1c1.7-2.4,4.3-3.7,7.7-3.7c5,0,9.5,4.4,9.5,11.7
		c0,8.4-5.3,12.3-10.4,12.3c-2.8,0-4.9-1.1-6-2.6H389v11.4h-7.1V311.1z M389,316.5c0,0.6,0,1.1,0.1,1.5c0.5,1.9,2.1,3.4,4.2,3.4
		c3.1,0,4.9-2.6,4.9-6.5c0-3.7-1.6-6.4-4.8-6.4c-2,0-3.8,1.5-4.3,3.6c-0.1,0.4-0.1,0.8-0.1,1.3V316.5z"/>
	<path class="st7" d="M432.8,314.6c0,8.4-6,12.3-12.1,12.3c-6.7,0-11.9-4.4-11.9-11.8s4.9-12.2,12.3-12.2
		C428.1,302.9,432.8,307.7,432.8,314.6z M416.1,314.8c0,3.9,1.6,6.9,4.7,6.9c2.8,0,4.6-2.8,4.6-6.9c0-3.4-1.3-6.9-4.6-6.9
		C417.4,307.9,416.1,311.5,416.1,314.8z"/>
	<path class="st7" d="M437.2,310.9c0-3.4-0.1-5.6-0.2-7.6h6.2l0.2,4.2h0.2c1.2-3.3,4-4.7,6.2-4.7c0.7,0,1,0,1.5,0.1v6.7
		c-0.5-0.1-1.1-0.2-1.9-0.2c-2.6,0-4.4,1.4-4.9,3.6c-0.1,0.5-0.1,1-0.1,1.6v11.7h-7.1V310.9z"/>
	<path class="st7" d="M464,296.8v6.6h5.1v5.3H464v8.3c0,2.8,0.7,4,2.8,4c0.9,0,1.6-0.1,2.1-0.2l0,5.4c-0.9,0.4-2.6,0.6-4.7,0.6
		c-2.3,0-4.2-0.8-5.4-2c-1.3-1.4-2-3.6-2-6.8v-9.4H454v-5.3h3.1v-5L464,296.8z"/>
	<path class="st7" d="M45.2,409.3c1.3,0.7,4.2,1.9,7.1,1.9c3.7,0,5.6-1.8,5.6-4.1c0-3-3-4.4-6.2-4.4h-2.9v-5.1h2.8
		c2.4,0,5.5-0.9,5.5-3.5c0-1.8-1.5-3.2-4.5-3.2c-2.5,0-5.1,1.1-6.4,1.8l-1.5-5.2c1.8-1.2,5.5-2.3,9.4-2.3c6.5,0,10.2,3.4,10.2,7.6
		c0,3.2-1.8,5.8-5.6,7.1v0.1c3.7,0.7,6.6,3.4,6.6,7.4c0,5.4-4.7,9.4-12.5,9.4c-3.9,0-7.3-1-9.1-2.2L45.2,409.3z"/>
	<path class="st7" d="M70.4,412.5c0-2.5,1.7-4.4,4.2-4.4s4.2,1.8,4.2,4.4c0,2.5-1.7,4.3-4.2,4.3C72.2,416.9,70.4,415,70.4,412.5z"/>
	<path class="st7" d="M261.1,416.4v-31.7h8.4l6.6,11.6c1.9,3.3,3.8,7.3,5.2,10.9h0.1c-0.5-4.2-0.6-8.5-0.6-13.2v-9.3h6.6v31.7h-7.5
		l-6.8-12.2c-1.9-3.4-3.9-7.5-5.5-11.2l-0.1,0c0.2,4.2,0.3,8.6,0.3,13.8v9.5H261.1z"/>
	<path class="st7" d="M298.6,407.1c0.2,3,3.1,4.4,6.5,4.4c2.4,0,4.4-0.3,6.3-0.9l0.9,4.8c-2.3,0.9-5.2,1.4-8.3,1.4
		c-7.8,0-12.3-4.5-12.3-11.7c0-5.8,3.6-12.3,11.6-12.3c7.4,0,10.2,5.8,10.2,11.5c0,1.2-0.1,2.3-0.2,2.8H298.6z M307.1,402.3
		c0-1.7-0.8-4.7-4-4.7c-3,0-4.2,2.7-4.4,4.7H307.1z"/>
	<path class="st7" d="M325.9,386.8v6.6h5.1v5.3h-5.1v8.3c0,2.8,0.7,4,2.8,4c0.9,0,1.6-0.1,2.1-0.2l0,5.4c-0.9,0.4-2.6,0.6-4.7,0.6
		c-2.3,0-4.2-0.8-5.4-2c-1.3-1.4-2-3.6-2-6.8v-9.4h-3.1v-5.3h3.1v-5L325.9,386.8z"/>
	<path class="st7" d="M340.4,393.4l1.8,9.4c0.5,2.4,0.9,4.9,1.3,7.6h0.1c0.5-2.6,1.1-5.3,1.7-7.5l2.4-9.4h5.6l2.3,9.2
		c0.6,2.6,1.2,5.2,1.7,7.8h0.1c0.3-2.6,0.8-5.2,1.3-7.8l2-9.1h7l-7,23H354l-2.2-8.1c-0.6-2.3-1-4.3-1.5-7.1h-0.1
		c-0.4,2.9-0.9,5-1.5,7.1l-2.3,8.1h-6.7l-6.7-23H340.4z"/>
	<path class="st7" d="M393.1,404.6c0,8.4-6,12.3-12.1,12.3c-6.7,0-11.9-4.4-11.9-11.8s4.9-12.2,12.3-12.2
		C388.4,392.9,393.1,397.7,393.1,404.6z M376.5,404.8c0,3.9,1.6,6.9,4.7,6.9c2.8,0,4.6-2.8,4.6-6.9c0-3.4-1.3-6.9-4.6-6.9
		C377.7,397.9,376.5,401.5,376.5,404.8z"/>
	<path class="st7" d="M397.5,400.9c0-3.4-0.1-5.6-0.2-7.6h6.2l0.2,4.2h0.2c1.2-3.3,4-4.7,6.2-4.7c0.7,0,1,0,1.5,0.1v6.7
		c-0.5-0.1-1.1-0.2-1.9-0.2c-2.6,0-4.4,1.4-4.9,3.6c-0.1,0.5-0.1,1-0.1,1.6v11.7h-7.1V400.9z"/>
	<path class="st7" d="M422.4,403.1L422.4,403.1c0.6-0.9,1.2-1.9,1.7-2.8l4.7-6.9h8.6l-8.2,9.3l9.4,13.7h-8.8l-5.5-9.4l-1.8,2.3v7.2
		h-7.1V383h7.1V403.1z"/>
	<path class="st7" d="M44,506.4V502l3.9-3.6c6.7-6,9.9-9.4,10-13c0-2.5-1.5-4.5-5-4.5c-2.6,0-4.9,1.3-6.5,2.5l-2-5.1
		c2.3-1.7,5.9-3.1,10-3.1c6.9,0,10.7,4,10.7,9.6c0,5.1-3.7,9.2-8.1,13.2l-2.8,2.3v0.1h11.5v5.9H44z"/>
	<path class="st7" d="M70.4,502.5c0-2.5,1.7-4.4,4.2-4.4s4.2,1.8,4.2,4.4c0,2.5-1.7,4.3-4.2,4.3C72.2,506.9,70.4,505,70.4,502.5z"/>
	<path class="st7" d="M261.1,475.1c2.6-0.4,6.1-0.7,9.7-0.7c6,0,9.9,1.1,13,3.4c3.3,2.4,5.4,6.3,5.4,11.9c0,6.1-2.2,10.2-5.3,12.8
		c-3.3,2.8-8.4,4.1-14.6,4.1c-3.7,0-6.3-0.2-8.1-0.5V475.1z M268.3,500.9c0.6,0.1,1.6,0.1,2.5,0.1c6.5,0,10.7-3.5,10.7-11.1
		c0-6.6-3.8-10.1-10-10.1c-1.6,0-2.6,0.1-3.2,0.3V500.9z"/>
	<path class="st7" d="M306.6,506.4l-0.4-2.3h-0.1c-1.5,1.8-3.9,2.8-6.6,2.8c-4.7,0-7.4-3.4-7.4-7c0-6,5.4-8.8,13.5-8.8v-0.3
		c0-1.2-0.7-3-4.2-3c-2.3,0-4.8,0.8-6.3,1.7l-1.3-4.6c1.6-0.9,4.7-2,8.9-2c7.7,0,10.1,4.5,10.1,9.9v8c0,2.2,0.1,4.3,0.3,5.6H306.6z
		 M305.8,495.5c-3.8,0-6.7,0.8-6.7,3.6c0,1.8,1.2,2.7,2.8,2.7c1.8,0,3.2-1.2,3.7-2.6c0.1-0.4,0.1-0.8,0.1-1.2V495.5z"/>
	<path class="st7" d="M326,476.8v6.6h5.1v5.3H326v8.3c0,2.8,0.7,4,2.8,4c0.9,0,1.6-0.1,2.1-0.2l0,5.4c-0.9,0.4-2.6,0.6-4.7,0.6
		c-2.3,0-4.2-0.8-5.4-2c-1.3-1.4-2-3.6-2-6.8v-9.4h-3.1v-5.3h3.1v-5L326,476.8z"/>
	<path class="st7" d="M348.3,506.4l-0.4-2.3h-0.1c-1.5,1.8-3.9,2.8-6.6,2.8c-4.7,0-7.4-3.4-7.4-7c0-6,5.4-8.8,13.5-8.8v-0.3
		c0-1.2-0.7-3-4.2-3c-2.4,0-4.8,0.8-6.3,1.7l-1.3-4.6c1.6-0.9,4.7-2,8.9-2c7.7,0,10.1,4.5,10.1,9.9v8c0,2.2,0.1,4.3,0.3,5.6H348.3z
		 M347.5,495.5c-3.8,0-6.7,0.8-6.7,3.6c0,1.8,1.2,2.7,2.8,2.7c1.8,0,3.2-1.2,3.7-2.6c0.1-0.4,0.1-0.8,0.1-1.2V495.5z"/>
	<path class="st7" d="M369.6,473h7.1v33.4h-7.1V473z"/>
	<path class="st7" d="M389.9,477c0,2-1.5,3.6-3.9,3.6c-2.3,0-3.8-1.6-3.7-3.6c0-2.1,1.5-3.6,3.8-3.6S389.8,474.9,389.9,477z
		 M382.5,506.4v-23h7.1v23H382.5z"/>
	<path class="st7" d="M395.4,490.7c0-2.9-0.1-5.3-0.2-7.3h6.2l0.3,3.1h0.1c0.9-1.5,3.3-3.7,7.1-3.7c4.7,0,8.2,3.1,8.2,9.9v13.6H410
		v-12.7c0-3-1-5-3.6-5c-2,0-3.1,1.4-3.6,2.7c-0.2,0.4-0.3,1.1-0.3,1.8v13.3h-7.1V490.7z"/>
	<path class="st7" d="M430.1,493.1L430.1,493.1c0.6-0.9,1.2-1.9,1.7-2.8l4.7-6.9h8.6l-8.2,9.3l9.4,13.7h-8.8l-5.5-9.4l-1.8,2.3v7.2
		h-7.1V473h7.1V493.1z"/>
	<path class="st7" d="M53.1,572.1L53.1,572.1l-5.9,2.8l-1.2-5.4l8.1-3.8H60v30.5h-6.9V572.1z"/>
	<path class="st7" d="M70.4,592.5c0-2.5,1.7-4.4,4.2-4.4s4.2,1.8,4.2,4.4c0,2.5-1.7,4.3-4.2,4.3C72.2,596.9,70.4,595,70.4,592.5z"/>
	<path class="st7" d="M261.1,565.1c2.2-0.4,5.3-0.7,9.7-0.7c4.4,0,7.6,0.8,9.7,2.5c2,1.6,3.4,4.2,3.4,7.3c0,3.1-1,5.7-2.9,7.5
		c-2.4,2.3-6.1,3.3-10.3,3.3c-0.9,0-1.8,0-2.4-0.1v11.3h-7.1V565.1z M268.2,579.5c0.6,0.1,1.4,0.2,2.4,0.2c3.8,0,6.2-1.9,6.2-5.2
		c0-2.9-2-4.7-5.6-4.7c-1.5,0-2.4,0.1-3,0.3V579.5z"/>
	<path class="st7" d="M288.2,563h7.1v13.1h0.1c0.8-1,1.7-1.7,2.8-2.3c1-0.6,2.4-0.9,3.7-0.9c4.6,0,8,3.1,8,10.1v13.4h-7.1v-12.6
		c0-3-1-5.1-3.7-5.1c-1.9,0-3.1,1.2-3.6,2.5c-0.2,0.5-0.2,1.1-0.2,1.6v13.6h-7.1V563z"/>
	<path class="st7" d="M320.2,573.4l3.4,11.3c0.4,1.4,0.8,3.1,1.1,4.3h0.1c0.3-1.2,0.7-3,1-4.3l2.8-11.3h7.7l-5.4,15.1
		c-3.3,9.1-5.5,12.8-8.1,15.1c-2.5,2.2-5.1,2.9-6.9,3.1l-1.5-6.1c0.9-0.1,2-0.6,3.1-1.2c1.1-0.6,2.3-1.7,3-2.9
		c0.2-0.3,0.4-0.7,0.4-1c0-0.2,0-0.6-0.3-1.2l-8.4-21H320.2z"/>
	<path class="st7" d="M338.6,590.1c1.3,0.8,4,1.7,6.2,1.7c2.2,0,3.1-0.8,3.1-1.9s-0.7-1.7-3.4-2.6c-4.7-1.6-6.6-4.2-6.5-6.9
		c0-4.3,3.7-7.5,9.4-7.5c2.7,0,5.1,0.6,6.5,1.3l-1.3,4.9c-1-0.6-3-1.3-5-1.3c-1.7,0-2.7,0.7-2.7,1.9c0,1.1,0.9,1.6,3.7,2.6
		c4.4,1.5,6.2,3.7,6.2,7.1c0,4.3-3.4,7.4-10,7.4c-3,0-5.7-0.7-7.4-1.6L338.6,590.1z"/>
	<path class="st7" d="M366.4,567c0,2-1.5,3.6-3.9,3.6c-2.3,0-3.8-1.6-3.7-3.6c0-2.1,1.5-3.6,3.8-3.6S366.4,564.9,366.4,567z
		 M359,596.4v-23h7.1v23H359z"/>
	<path class="st7" d="M389.2,595.8c-1.3,0.6-3.7,1-6.4,1c-7.4,0-12.2-4.5-12.2-11.7c0-6.7,4.6-12.2,13.2-12.2c1.9,0,3.9,0.3,5.5,0.9
		l-1.1,5.3c-0.8-0.4-2.1-0.7-4-0.7c-3.8,0-6.2,2.7-6.2,6.4c0,4.2,2.8,6.4,6.3,6.4c1.7,0,3-0.3,4.1-0.7L389.2,595.8z"/>
	<path class="st7" d="M406.4,596.4l-0.4-2.3h-0.1c-1.5,1.8-3.9,2.8-6.6,2.8c-4.7,0-7.4-3.4-7.4-7c0-6,5.4-8.8,13.5-8.8v-0.3
		c0-1.2-0.7-3-4.2-3c-2.3,0-4.8,0.8-6.3,1.7l-1.3-4.6c1.6-0.9,4.7-2,8.9-2c7.7,0,10.1,4.5,10.1,9.9v8c0,2.2,0.1,4.3,0.3,5.6H406.4z
		 M405.5,585.5c-3.8,0-6.7,0.8-6.7,3.6c0,1.8,1.2,2.7,2.8,2.7c1.8,0,3.2-1.2,3.7-2.6c0.1-0.4,0.1-0.8,0.1-1.2V585.5z"/>
	<path class="st7" d="M418.1,563h7.1v33.4h-7.1V563z"/>
</g>
</svg>
